<svg width="2191" height="1558" xmlns="http://www.w3.org/2000/svg" xml:space="preserve" overflow="hidden">
    <g fill-rule="evenodd">
        <path d="M1902.01 15.165c12.55 12.557 16.85 28.639 19.87 45.7l1.17 6.242c1.33 7.11 2.61 14.23 3.88 21.351.48 2.636.95 5.272 1.45 7.988 3.66 20.238 7.23 40.49 10.79 60.747 1.58 8.985 3.16 17.968 4.75 26.951 2.7 15.346 5.41 30.694 8.11 46.041 6.74 38.34 13.51 76.678 20.28 115.014 1.08 6.083 2.15 12.164 3.23 18.245a59799.562 59799.562 0 0 0 37.34 209.506c.42 2.36.85 4.73 1.29 7.17 17.18 95.35 34.57 190.66 52.02 285.96.37 2.01.73 4.01 1.11 6.08l3.15 17.19c.33 1.78.65 3.57.99 5.41 1.63 8.9 3.29 17.78 4.99 26.67.51 2.63.51 2.63 1.02 5.3.91 4.77 1.83 9.54 2.75 14.3 2.92 17.05 4 31.84-4.95 47.18-23.38 32.05-66.73 33.96-103.05 40.24-4.84.86-9.68 1.71-14.52 2.57-10.33 1.82-20.66 3.63-30.99 5.44-16.51 2.88-33.02 5.79-49.52 8.71-2.78.5-5.56.99-8.43 1.49l-16.93 3c-8.53 1.5-17.06 3.01-25.59 4.51-48.77 8.61-97.5 17.41-146.21 26.3l-25.03 4.56c-44.27 8.07-88.54 16.15-132.8 24.25-28.57 5.22-57.13 10.44-85.7 15.65-18.25 3.33-36.51 6.67-54.77 10.01-14.02 2.57-28.05 5.14-42.08 7.69-5.81 1.06-11.61 2.12-17.41 3.19-8.01 1.47-16.02 2.93-24.03 4.39-2.32.42-4.63.85-7.02 1.29-12.92 2.34-25.65 3.98-38.76 4.83-2.28.41-2.28.41-4.61.84-.79 1.6-1.59 3.19-2.41 4.83-5.32.57-10.64 1.1-15.98 1.53-9.94 1.08-19.7 2.78-29.53 4.59-2.01.37-4.02.73-6.1 1.11-6.59 1.22-13.18 2.45-19.76 3.67a7058 7058 0 0 1-14.19 2.62c-12.73 2.35-25.46 4.71-38.19 7.07-13.44 2.49-26.89 4.98-40.34 7.46-5.46 1-10.92 2.01-16.38 3.02-2.71.5-5.42 1-8.22 1.52-8.26 1.53-16.53 3.05-24.8 4.58-32.89 6.08-65.79 12.13-98.7 18.12-4.01.72-8.01 1.45-12.02 2.18-1.97.36-3.93.72-5.96 1.09-1.96.35-3.91.71-5.93 1.08-1.94.35-3.89.7-5.89 1.07-167.76 30.55-335.33 62.19-502.702 94.78-38.674 7.53-77.36 15.01-116.09 22.26-4.019.75-8.035 1.51-12.055 2.27-5.542 1.06-11.088 2.09-16.637 3.12l-4.889.94c-23.451 4.28-44.781 2.17-64.807-11.35-12.594-10.17-20.901-24.5-25.981-39.74l-.855-9.58c-1.951-20.84-5.985-41.4-9.595-61.99a40110.817 40110.817 0 0 0-9.15-52.52c-2.352-13.47-4.696-26.95-7.04-40.42-5.18-29.75-10.376-59.5-15.574-89.25l-4.757-27.25c-7.506-42.99-15.03-85.99-22.561-128.98-5.706-32.57-11.397-65.13-17.084-97.71l-4.176-23.91c-4.21-24.1-8.418-48.21-12.621-72.32-8.589-49.24-17.193-98.49-25.94-147.7-1.138-6.4-2.271-12.8-3.405-19.198-.365-2.05-.727-4.099-1.102-6.212-.715-4.042-1.433-8.088-2.148-12.133a16840.6 16840.6 0 0 0-6.115-34.264 8461.045 8461.045 0 0 1-3.697-20.818c-.817-4.599-1.651-9.198-2.485-13.794-10.803-61.412-10.803-61.412 4.29-85.545 16.785-21.558 42.458-25.204 68.038-29.564l8.944-1.591a5026.44 5026.44 0 0 1 18.866-3.31c9.14-1.581 18.274-3.189 27.409-4.804 9.525-1.683 19.05-3.364 28.576-5.032 29.771-5.22 59.517-10.566 89.261-15.931l7.651-1.379 31.885-5.752c29.601-5.336 59.207-10.653 88.813-15.968a264909.2 264909.2 0 0 0 47.679-8.564c1.602-.285 3.202-.573 4.853-.87 146.091-26.232 146.091-26.232 292.141-52.679l15.57-2.83c41.17-7.48 82.31-15.075 123.45-22.711 76.51-14.2 153.06-28.19 229.61-42.151 18.07-3.294 36.13-6.59 54.19-9.886 113.83-20.774 113.83-20.774 157.48-28.698 45.91-8.334 91.8-16.734 137.66-25.355a15441.03 15441.03 0 0 1 168.29-30.626c24.69-4.358 49.36-8.789 74.04-13.231 7.68-1.381 15.36-2.756 23.04-4.13 23.73-4.257 47.44-8.607 71.11-13.218 6.25-1.204 12.5-2.404 18.74-3.605 5.68-1.105 11.35-2.251 17.02-3.399 29.42-5.771 55.33-7.367 81.47 9.053ZM1476.96 192.65c-6.61 1.156-13.23 2.305-19.84 3.452-90.85 15.754-181.57 32.164-272.28 48.679l-7.97 1.45c-12.29 2.238-24.58 4.478-36.87 6.724-27.33 4.987-54.68 9.823-82.06 14.564-18.68 3.235-37.34 6.55-56.01 9.865-3.86.687-7.73 1.371-11.59 2.057-10.17 1.804-20.34 3.61-30.5 5.414a580293.73 580293.73 0 0 1-64.03 11.362c-31.31 5.554-62.64 11.086-93.96 16.599-41.6 7.321-83.19 14.681-124.76 22.179-4.76.856-9.51 1.71-14.27 2.561-6.47 1.155-12.93 2.323-19.39 3.496-1.92.341-3.84.684-5.82 1.035-8.6.948-8.6.948-15.76 5.085-3.58.481-7.19.829-10.79 1.119-12.28 1.124-24.29 2.974-36.42 5.155-2.17.382-4.33.764-6.56 1.158-7.1 1.255-14.2 2.522-21.3 3.789-5.02.89-10.03 1.78-15.05 2.667-10.52 1.864-21.032 3.736-31.545 5.61a38180.707 38180.707 0 0 1-39.86 7.082c-78.849 13.961-78.849 13.961-157.494 29.031-.273 2.396-.273 2.396-.556 4.838-6.525 56.306-20.859 109.031-67.122 146.049-22.827 16.9-48.23 28.29-74.914 37.71 1.429 24.51 5.349 48.39 9.479 72.55a21816.892 21816.892 0 0 0 8.036 47.39c1.629 9.57 3.251 19.15 4.872 28.73 13.471 79.52 27.153 159.01 40.977 238.48l1.755 10.09c.792 4.57 1.59 9.14 2.388 13.71l1.343 7.71a824.736 824.736 0 0 0 3.655 18.98c1.348.16 2.697.31 4.084.48 52.355 6.26 96.354 19.74 138.507 52.71 1.508 1.11 3.016 2.22 4.571 3.36 30.323 23.6 51.471 62.46 63.1 98.19 20.27-1.57 40.042-5.08 59.998-8.81 6.353-1.2 12.706-2.37 19.066-3.55 9.43-1.74 18.85-3.49 28.27-5.24 26.38-4.91 52.77-9.78 79.16-14.64 4.29-.79 4.29-.79 8.67-1.6 80.44-14.83 160.93-29.34 241.42-43.86 9.37-1.69 18.73-3.38 28.09-5.07 59.39-10.72 118.79-21.44 178.2-32.11 59.55-10.71 119.09-21.52 178.59-32.5 11.02-2.04 22.04-4.07 33.06-6.1 3.42-.62 3.42-.62 6.91-1.27 4.65-.86 9.31-1.71 13.97-2.57 7.07-1.3 14.14-2.61 21.21-3.91 47.48-8.75 94.98-17.47 142.47-26.19 17.6-3.24 35.2-6.47 52.8-9.71 2.44-.45 4.89-.9 7.4-1.36 9.72-1.79 19.44-3.57 29.15-5.36 26.8-4.93 53.6-9.85 80.41-14.75 15.25-2.79 30.51-5.59 45.76-8.39 10.22-1.87 20.44-3.74 30.65-5.6 7.52-1.37 15.04-2.76 22.55-4.14 2.67-.49 5.35-.97 8.1-1.47 2.39-.44 4.78-.88 7.24-1.34 3.11-.56 3.11-.56 6.28-1.15 4.65-.66 4.65-.66 7.07-3.51.43-5.06.85-10.13 1.19-15.2 4.24-57.69 26.91-106.96 68.9-146.8 1.94-1.84 3.87-3.67 5.86-5.56 13.32-11.53 27.96-19.2 43.82-26.6 11.79-5 11.79-5 20.41-13.78-.39-7.07-1.19-13.36-2.47-20.28-.35-2.07-.69-4.14-1.05-6.27-1.17-6.85-2.39-13.69-3.62-20.53-.82-4.75-1.64-9.5-2.45-14.25-2.16-12.51-4.36-25.02-6.58-37.52-1.8-10.22-3.57-20.45-5.33-30.68-2.1-12.16-4.21-24.32-6.33-36.49-.61-3.49-.61-3.49-1.23-7.06-1.15-6.58-2.31-13.16-3.48-19.73l-1.03-5.94c-1.62-9.716-1.62-9.716-5.1-18.864-.8-5.674-1.5-11.366-2.14-17.06-2.51-21.111-5.92-42.009-9.51-62.955-.64-3.793-1.29-7.587-1.93-11.381-1.67-9.843-3.35-19.684-5.03-29.525-1.72-10.099-3.44-20.199-5.15-30.299-3.35-19.713-6.71-39.426-10.08-59.137l-5.53-.732c-8.43-1.137-16.85-2.316-25.28-3.499-4.3-.568-4.3-.568-8.69-1.151-51.76-7.355-97.88-30.267-132.14-70.402-13.72-18.421-25.12-38.353-33.79-59.616-54.15 0-111.61 15.098-164.78 24.401Z" fill="#010101"/>
        <path d="M1204.14 359.709c.8 1.595 1.6 3.19 2.42 4.834 4.83 1.618 9.67 3.228 14.51 4.834 80.54 42.401 143.5 114.911 171.18 201.843 26.2 88.92 18.21 184.64-26 266.52-15.23 26.92-34.5 50.68-55.72 73.08-1.86 1.98-3.72 3.97-5.64 6.02-56.77 58.86-134.05 93.88-214.4 105.16l-6.74.97c-80.89 9.74-172.63-13.87-237.32-63.81-13.46-10.7-26.36-22.03-38.84-33.84-2.04-1.91-4.09-3.83-6.19-5.8-12.71-12.26-23.42-25.01-33.48-39.52-3.73-5.59-3.73-5.59-8.69-10.28-2.56-4.27-5.02-8.61-7.41-12.99-1.27-2.31-2.55-4.62-3.86-7-3.24-6.59-3.24-6.59-4.59-12.13-.53-2.04-.53-2.04-1.07-4.13-1.59-.8-3.19-1.6-4.83-2.42-1.95-4.14-1.95-4.14-3.84-9.54l-2.12-6.03c-.73-2.14-1.45-4.28-2.2-6.49-.75-2.17-1.5-4.33-2.28-6.57-5.53-16.26-10.25-32.61-14.4-49.27-1.47-6.54-1.47-6.54-4.18-11.53-.51-6.61-.91-13.18-1.21-19.79-.93-23.07-.93-23.07-6.04-45.48h4.83c.07-2.58.13-5.16.19-7.81 2.91-85.89 33.81-162.309 92.87-224.892 6.02-6.304 6.02-6.304 10.53-12.539 7.13-8.373 15.36-14.64 24.11-21.245 1.82-1.377 3.64-2.755 5.52-4.174 103.37-77.071 245.27-100.16 364.89-45.981Z"/>
        <path d="m2069.14 265.412 9.07-.302c52.59.258 52.59.258 70.68 17.214 7.08 15.112 8.41 31.36 8.79 47.812.11 3.405.11 3.405.23 6.879.25 7.539.45 15.078.65 22.618.16 5.353.32 10.706.49 16.059.51 16.611.95 33.224 1.39 49.837l.54 20.694c.51 18.843 1 37.688 1.49 56.532.36 13.95.73 27.905 1.1 41.855 3.97 151.2 7.55 302.41 11.01 453.63.15 6.46.3 12.92.44 19.37.43 18.45.85 36.89 1.26 55.33.21 9.51.42 19.02.64 28.53l.12 5.47c.52 22.67 1.12 45.34 1.83 68 .14 4.63.28 9.26.41 13.88.24 7.89.52 15.78.81 23.67.84 25.06.26 45.53-16.64 65.33-27.01 25.96-80.92 20.19-115.95 21.17l-14.48.45c-12.64.39-25.27.76-37.91 1.13-12.66.37-25.31.75-37.97 1.14-14.74.45-29.48.9-44.22 1.34-24.02.72-48.03 1.5-72.04 2.46-28.39 1.12-56.78 1.8-85.17 2.48-131.76 3.19-263.39 7.68-395.06 13.33l-11.12.48c-41.1 1.77-82.2 3.57-123.3 5.41-17.38.78-34.75 1.55-52.13 2.3-9.95.43-19.89.88-29.83 1.32-4.49.2-8.98.39-13.47.58-5.99.26-11.99.53-17.98.8-1.74.07-3.47.14-5.26.22-8.85.33-8.85.33-17.1 3.24-6.66.05-13.27-.02-19.92-.15-38.8-.32-77.5 2.36-116.21 4.59-6.81.4-13.63.78-20.45 1.16-65.24 3.67-130.48 7.6-195.71 11.58-2.69.17-2.69.17-5.43.34-37.79 2.31-75.57 4.63-113.36 6.97l-35.73 2.22c-11.03.68-22.06 1.37-33.09 2.06l-17.1 1.05c-2.55.17-5.1.33-7.73.49-13.163.81-26.212 1.26-39.404 1.1 6.389-6.39 11.333-6.74 20.156-8.69 1.598-.36 3.195-.71 4.84-1.08 5.398-1.2 10.798-2.36 16.208-3.53l11.66-2.55c47.31-10.29 94.79-19.77 142.27-29.22 12.87-2.56 25.75-5.14 38.62-7.73 55.21-11.08 110.47-21.83 165.85-32.07 3.86-.72 3.86-.72 7.8-1.45 7.24-1.35 14.48-2.68 21.72-4 2.14-.4 4.27-.8 6.48-1.21 9.57-1.73 18.59-3.21 28.37-2.69.79-1.6 1.59-3.19 2.41-4.84 4.34-.79 4.34-.79 10.13-1.14 16.11-1.31 31.84-4.21 47.72-7.16 2.94-.53 5.88-1.05 8.91-1.59 2.82-.52 5.63-1.04 8.52-1.57 2.55-.47 5.09-.93 7.71-1.41 6.91-1.36 6.91-1.36 13.67-6.45 4.71-.06 9.43-.1 14.13.01 8.13-.02 15.96-1.54 23.91-3.07 1.77-.33 3.53-.65 5.35-.99 5.81-1.08 11.62-2.18 17.42-3.29 4.15-.77 8.28-1.54 12.43-2.31 10.94-2.04 21.87-4.1 32.81-6.17 10.77-2.03 21.54-4.04 32.32-6.06 4.27-.79 8.53-1.59 12.8-2.39 8.54-1.6 17.08-3.19 25.63-4.79 19.17-3.58 38.33-7.18 57.48-10.92 8.26-1.61 16.53-3.2 24.8-4.78 3.84-.74 7.69-1.5 11.52-2.27 25.3-5.05 49.17-7.07 74.97-6.12v-4.84c1.37.02 2.74.03 4.15.04 46.01.38 91.92-.89 137.89-2.4l31.17-.99c17.41-.55 34.82-1.11 52.23-1.67 19.99-.65 39.98-1.29 59.97-1.92 21.51-.68 43.01-1.37 64.52-2.06 6.11-.2 12.21-.39 18.32-.58 40.78-1.3 81.56-2.6 122.3-4.91.27-1.56.53-3.12.81-4.73.53-3.08.53-3.08 1.06-6.21.35-2.03.7-4.06 1.06-6.16 4.32-24.71 9.14-44.08 29.49-60.29 18.49-12 41.97-12.24 63.33-14.72 76.38-8.18 76.38-8.18 136.24-52.85 22.94-37.16 20.53-77.85 14.49-119.13l-.77-5.4c-5.48-38.15-12.39-76.03-19.54-113.89-.63-3.32-.63-3.32-1.26-6.71-.78-4.15-1.57-8.3-2.37-12.45-1.74-9.3-3.12-17.99-2.64-27.5-1.59-.79-3.19-1.59-4.83-2.41-.83-5.2-.83-5.2-1.21-11.93-1.48-22.47-1.48-22.47-8.46-43.64-.41-3.8-.71-7.61-.97-11.42-1.4-16.85-4.51-33.28-7.64-49.88-1.12-5.96-2.23-11.92-3.33-17.88-.49-2.6-.98-5.2-1.48-7.88-.98-6.56-1.28-12.63-1.08-19.24-1.59-.8-3.19-1.6-4.83-2.42-.68-4.22-.68-4.22-.94-10.19-1.72-23-6.41-45.584-10.53-68.249-.9-5.044-1.81-10.088-2.72-15.133-2.37-13.225-4.76-26.447-7.15-39.669-2.43-13.406-4.84-26.814-7.25-40.222-3.13-17.418-6.27-34.835-9.41-52.251-.8-4.39-1.59-8.781-2.38-13.172-1.56-8.652-3.13-17.298-4.78-25.933-.45-2.349-.9-4.697-1.36-7.116l-1.11-5.674c-1.22-8.839-.45-15.697 1.72-24.379 7.1-6.845 13.49-8.587 23.11-10.117l6.95-1.161c6.19-.802 6.19-.802 13.43-.802ZM2181.09 1333.27c2.39.8 4.79 1.6 7.25 2.42-.71 2.96-1.43 5.92-2.17 8.97-3.2 14.46-4.92 29.03-6.59 43.73-.49 3.96-.49 3.96-.98 8-2.15 18.61-2.72 36.88-2.35 55.59h-4.83c.41 1.61.83 3.22 1.26 4.88 1.42 8.85 1.03 17.27.4 26.17-.12 1.72-.24 3.45-.36 5.23-1.53 20.07-3.94 37.6-19.52 51.94-16.73 13.1-35.27 14.33-55.81 14.03-3.31-.02-3.31-.02-6.69-.05-24.77-.3-49.46-1.85-74.17-3.51l-15.43-.99c-11.02-.71-22.03-1.43-33.05-2.15-17.65-1.17-35.3-2.31-52.95-3.45-25.14-1.62-50.29-3.26-75.43-4.9-39.18-2.56-78.37-5.1-117.55-7.62-1.62-.11-3.23-.21-4.9-.32-17.81-1.15-35.62-2.29-53.43-3.44-12.84-.83-25.68-1.65-38.52-2.48-95.46-6.16-190.92-12.21-286.41-17.76-2.76-.16-5.51-.32-8.34-.49-33.86-1.96-67.73-3.89-101.6-5.79-15.06-.85-30.11-1.7-45.17-2.56-168.41-9.55-336.86-18.32-505.31-27.09-35.58-1.86-71.16-3.72-106.74-5.59-4.09-.21-8.19-.43-12.29-.64-2.03-.11-4.06-.22-6.15-.33-14.66-.77-29.33-1.53-44.003-2.3-18.664-.97-37.33-1.95-55.994-2.94-9.656-.51-19.312-1.02-28.97-1.52-67.227-3.48-67.227-3.48-96.7-6.33-1.872-.18-3.745-.36-5.674-.54-21.991-2.32-39.659-8.16-55.576-23.68 9.622-6.42 19.911-5.89 31.071-6.3 2.067-.09 4.134-.19 6.264-.28 6.593-.3 13.186-.57 19.781-.84 6.612-.28 13.222-.57 19.832-.87 4.112-.18 8.222-.35 12.334-.51 10.079-.21 10.079-.21 19.51-3.32 6.429-.12 12.806-.12 19.232-.02 23.238.17 46.331-.79 69.531-2.01 4.148-.21 8.297-.42 12.443-.64 8.59-.43 17.175-.88 25.762-1.33 11.008-.58 22.017-1.14 33.017-1.7 8.52-.43 17.04-.87 25.56-1.31l12.19-.63c5.63-.28 11.27-.58 16.91-.88 1.67-.08 3.34-.17 5.06-.25 7.09-.39 12.86-1.07 19.64-3.34 5.3 0 10.61.04 15.91.11 36.45.32 72.8-1.25 109.21-2.89 5.26-.23 10.52-.47 15.78-.7 18.4-.81 36.8-1.63 55.2-2.46 17.1-.78 34.2-1.53 51.3-2.27 14.77-.64 29.53-1.29 44.3-1.96 8.78-.4 17.57-.79 26.35-1.16 9.75-.42 19.5-.87 29.25-1.32 4.34-.18 4.34-.18 8.77-.36 2.65-.13 5.3-.26 8.03-.39 3.45-.16 3.45-.16 6.97-.31 6.26-.85 10.23-2.7 15.75-5.67 6.23-.48 6.23-.48 12.69-.31 2.16.05 4.31.09 6.53.14 2.45.08 2.45.08 4.95.17v2.42c9.79-.25 19.58-.5 29.36-.76l11.51-.3c27.91-.72 55.81-1.6 83.7-2.6 121.68-4.32 243.12-5.36 364.8-.49 5.57.23 11.13.45 16.69.67 3.95.16 3.95.16 7.97.32 18.85.71 37.66.93 56.52.65 7.93-.09 14.18-.02 21.77 2.51 3.59.36 7.19.61 10.8.79 2.22.11 4.43.23 6.71.35 3.64.17 3.64.17 7.35.35 5.32.27 10.63.54 15.94.82 4.24.21 4.24.21 8.57.43 59.37 2.99 118.64 6.78 177.93 11.14 2.84.21 5.68.41 8.6.62 5.25.38 10.5.77 15.74 1.17 15.59 1.12 31.02 1.39 46.65 1.12 6.33.17 6.33.17 11.16 2.59 33.4 5.2 33.4 5.2 65.28 0 1.27-4.19 2.35-8.44 3.32-12.72 2.83-10.79 4.94-18.53 13.6-26.04 18.85-9.7 38.86-8.38 59.53-8.48 56.88.04 56.88.04 107.57-22.26 2.25-1.57 2.25-1.57 4.55-3.18Z" fill="#020202"/>
        <path d="M1032.37 437.299c9.26 6.609 14.01 13.227 16.92 24.158 1.07 8.037 1.83 16.073 2.42 24.157l9.07-.453c38.77.243 70.52 19.696 97.29 46.349 1.87 1.61 3.73 3.22 5.66 4.88 1.32 1.58 2.65 3.16 4.01 4.79-.57 6.15-1.75 8.98-6.09 13.42-2.32 1.74-2.32 1.74-4.68 3.53-1.7 1.27-3.39 2.55-5.14 3.86-1.78 1.31-3.56 2.61-5.39 3.95l-5.31 4.06c-13.25 9.83-13.25 9.83-24.15 9.83-4.41-3.36-4.41-3.36-8.92-7.85-20.59-19.01-43.49-22.3-70.56-21.81-21.68 1-40.14 10.13-55.89 24.83-8.36 9.4-8.21 18.41-7.78 30.5.64 6.95 1.5 11.93 5.36 17.81 28.89 12.97 58.75 14.1 89.83 15.9 43.79 2.62 91.77 7.51 122.89 42.08 19.87 27.8 22 53.73 19.34 86.97-5.23 29.02-23.37 53.95-45.93 72.47-16.25 11.26-31.16 18.81-50.76 21.74l1.21 6.95c3.88 29 3.88 29-1.24 38.8-6.38 7.97-11.74 11.65-21.93 12.81-9.66.31-15.27.25-23.82-4.65-8.91-9.99-10.46-19.82-11.33-32.92-.18-2.58-.36-5.16-.54-7.82-.12-1.95-.24-3.91-.36-5.92-1.36.09-2.71.17-4.1.26-36.54 1.23-69.41-9.66-97.13-33.47-11.4-10.89-20.33-22.46-26.89-36.85v-4.83c3.62-3.13 3.62-3.13 8.65-6.64 2.72-1.91 2.72-1.91 5.49-3.85 2.87-1.98 2.87-1.98 5.81-4 2.81-1.98 2.81-1.98 5.69-4 8.18-5.71 16.09-11.04 25.12-15.33 1 1.4 2 2.8 3.03 4.25 14.19 19.19 28.94 33.02 52.57 39.24 8.39.97 16.64 1.01 25.08.9 3.2.04 3.2.04 6.46.09 24.53-.11 48.41-6.51 66.45-23.9 10.25-11.62 14.49-21.9 13.93-37.52-1.3-8.61-4.5-12.97-10.39-19.29-19.22-13.34-43.91-12.08-66.33-13.29-53.62-2.97-105.31-8.04-143.97-49.52-16.98-20.56-21.52-46.44-19.34-72.48 3.41-28.33 17.93-50.93 38.67-70.055 15.09-11.559 30.08-19.07 48.35-24.158l-1.06-4.775c-6.25-29.435-6.25-29.435.61-41.728 10.92-13.729 22.59-13.845 39.12-11.475Z" fill="#FCFDFD"/>
    </g>
</svg>
